# 3ds Max Wavefront OBJ Exporter v0.97b - (c)2007 guruware
# File Created: 23.01.2019 14:27:48

mtllib drzwi.mtl

#
# object Box001
#

v  -25.4573 0.0000 7.4146
v  -25.4573 0.0000 4.9430
v  -20.3658 0.0000 4.9430
v  -20.3658 0.0000 7.4146
v  -15.2744 0.0000 4.9430
v  -15.2744 0.0000 7.4146
v  -10.1829 0.0000 4.9430
v  -10.1829 0.0000 7.4146
v  -5.0915 0.0000 4.9430
v  -5.0915 0.0000 7.4146
v  0.0000 0.0000 4.9430
v  0.0000 0.0000 7.4146
v  5.0915 0.0000 4.9430
v  5.0915 0.0000 7.4146
v  10.1829 0.0000 4.9430
v  10.1829 0.0000 7.4146
v  15.2744 0.0000 4.9430
v  15.2744 0.0000 7.4146
v  20.3658 0.0000 4.9430
v  20.3658 0.0000 7.4146
v  25.4573 0.0000 4.9430
v  25.4573 0.0000 7.4146
v  -25.4573 0.0000 2.4715
v  -20.3658 0.0000 2.4715
v  -15.2744 0.0000 2.4715
v  -10.1829 0.0000 2.4715
v  -5.0915 0.0000 2.4715
v  0.0000 0.0000 2.4715
v  5.0915 0.0000 2.4715
v  10.1829 0.0000 2.4715
v  15.2744 0.0000 2.4715
v  20.3658 0.0000 2.4715
v  25.4573 0.0000 2.4715
v  -25.4573 0.0000 0.0000
v  -20.3658 0.0000 0.0000
v  -15.2744 0.0000 0.0000
v  -10.1829 0.0000 0.0000
v  -5.0915 0.0000 0.0000
v  0.0000 0.0000 0.0000
v  5.0915 0.0000 0.0000
v  10.1829 0.0000 0.0000
v  15.2744 0.0000 0.0000
v  20.3658 0.0000 0.0000
v  25.4573 0.0000 0.0000
v  -25.4573 0.0000 -2.4715
v  -20.3658 0.0000 -2.4715
v  -15.2744 0.0000 -2.4715
v  -10.1829 0.0000 -2.4715
v  -5.0915 0.0000 -2.4715
v  0.0000 0.0000 -2.4715
v  5.0915 0.0000 -2.4715
v  10.1829 0.0000 -2.4715
v  15.2744 0.0000 -2.4715
v  20.3658 0.0000 -2.4715
v  25.4573 0.0000 -2.4715
v  -25.4573 0.0000 -4.9430
v  -20.3658 0.0000 -4.9430
v  -15.2744 0.0000 -4.9430
v  -10.1829 0.0000 -4.9430
v  -5.0915 0.0000 -4.9430
v  0.0000 0.0000 -4.9430
v  5.0915 0.0000 -4.9430
v  10.1829 0.0000 -4.9430
v  15.2744 0.0000 -4.9430
v  20.3658 0.0000 -4.9430
v  25.4573 0.0000 -4.9430
v  -25.4573 0.0000 -7.4146
v  -20.3658 0.0000 -7.4146
v  -15.2744 0.0000 -7.4146
v  -10.1829 0.0000 -7.4146
v  -5.0915 0.0000 -7.4146
v  0.0000 0.0000 -7.4146
v  5.0915 0.0000 -7.4146
v  10.1829 0.0000 -7.4146
v  15.2744 0.0000 -7.4146
v  20.3658 0.0000 -7.4146
v  25.4573 0.0000 -7.4146
v  -25.4573 79.2217 7.4146
v  -20.3658 79.2217 7.4146
v  -20.3658 79.2217 4.9430
v  -25.4573 79.2217 4.9430
v  -15.2744 79.2217 7.4146
v  -15.2744 79.2217 4.9430
v  -10.1829 79.2217 7.4146
v  -10.1829 79.2217 4.9430
v  -5.0915 79.2217 7.4146
v  -5.0915 79.2217 4.9430
v  0.0000 79.2217 7.4146
v  0.0000 79.2217 4.9430
v  5.0915 79.2217 7.4146
v  5.0915 79.2217 4.9430
v  10.1829 79.2217 7.4146
v  10.1829 79.2217 4.9430
v  15.2744 79.2217 7.4146
v  15.2744 79.2217 4.9430
v  20.3658 79.2217 7.4146
v  20.3658 79.2217 4.9430
v  25.4573 79.2217 7.4146
v  25.4573 79.2217 4.9430
v  -20.3658 79.2217 2.4715
v  -25.4573 79.2217 2.4715
v  -15.2744 79.2217 2.4715
v  -10.1829 79.2217 2.4715
v  -5.0915 79.2217 2.4715
v  0.0000 79.2217 2.4715
v  5.0915 79.2217 2.4715
v  10.1829 79.2217 2.4715
v  15.2744 79.2217 2.4715
v  20.3658 79.2217 2.4715
v  25.4573 79.2217 2.4715
v  -20.3658 79.2217 0.0000
v  -25.4573 79.2217 0.0000
v  -15.2744 79.2217 0.0000
v  -10.1829 79.2217 0.0000
v  -5.0915 79.2217 0.0000
v  0.0000 79.2217 0.0000
v  5.0915 79.2217 0.0000
v  10.1829 79.2217 0.0000
v  15.2744 79.2217 0.0000
v  20.3658 79.2217 0.0000
v  25.4573 79.2217 0.0000
v  -20.3658 79.2217 -2.4715
v  -25.4573 79.2217 -2.4715
v  -15.2744 79.2217 -2.4715
v  -10.1829 79.2217 -2.4715
v  -5.0915 79.2217 -2.4715
v  0.0000 79.2217 -2.4715
v  5.0915 79.2217 -2.4715
v  10.1829 79.2217 -2.4715
v  15.2744 79.2217 -2.4715
v  20.3658 79.2217 -2.4715
v  25.4573 79.2217 -2.4715
v  -20.3658 79.2217 -4.9430
v  -25.4573 79.2217 -4.9430
v  -15.2744 79.2217 -4.9430
v  -10.1829 79.2217 -4.9430
v  -5.0915 79.2217 -4.9430
v  0.0000 79.2217 -4.9430
v  5.0915 79.2217 -4.9430
v  10.1829 79.2217 -4.9430
v  15.2744 79.2217 -4.9430
v  20.3658 79.2217 -4.9430
v  25.4573 79.2217 -4.9430
v  -20.3658 79.2217 -7.4146
v  -25.4573 79.2217 -7.4146
v  -15.2744 79.2217 -7.4146
v  -10.1829 79.2217 -7.4146
v  -5.0915 79.2217 -7.4146
v  0.0000 79.2217 -7.4146
v  5.0915 79.2217 -7.4146
v  10.1829 79.2217 -7.4146
v  15.2744 79.2217 -7.4146
v  20.3658 79.2217 -7.4146
v  25.4573 79.2217 -7.4146
v  -20.3658 19.8054 7.4146
v  -25.4573 19.8054 7.4146
v  -15.2744 19.8054 7.4146
v  -10.1829 19.8054 7.4146
v  -5.0915 19.8054 7.4146
v  0.0000 19.8054 7.4146
v  5.0915 19.8054 7.4146
v  10.1829 19.8054 7.4146
v  15.2744 19.8054 7.4146
v  20.3658 19.8054 7.4146
v  25.4573 19.8054 7.4146
v  -20.3658 39.6109 7.4146
v  -25.4573 39.6109 7.4146
v  -15.2744 39.6109 7.4146
v  -10.1829 39.6109 7.4146
v  -5.0915 39.6109 7.4146
v  0.0000 39.6109 7.4146
v  5.0915 39.6109 7.4146
v  10.1829 39.6109 7.4146
v  15.2744 39.6109 7.4146
v  20.3658 39.6109 7.4146
v  25.4573 39.6109 7.4146
v  -20.3658 59.4163 7.4146
v  -25.4573 59.4163 7.4146
v  -15.2744 59.4163 7.4146
v  -10.1829 59.4163 7.4146
v  -5.0915 59.4163 7.4146
v  0.0000 59.4163 7.4146
v  5.0915 59.4163 7.4146
v  10.1829 59.4163 7.4146
v  15.2744 59.4163 7.4146
v  20.3658 59.4163 7.4146
v  25.4573 59.4163 7.4146
v  25.4573 19.8054 4.9430
v  25.4573 19.8054 2.4715
v  25.4573 19.8054 0.0000
v  25.4573 19.8054 -2.4715
v  25.4573 19.8054 -4.9430
v  25.4573 19.8054 -7.4146
v  25.4573 39.6109 4.9430
v  25.4573 39.6109 2.4715
v  25.4573 39.6109 0.0000
v  25.4573 39.6109 -2.4715
v  25.4573 39.6109 -4.9430
v  25.4573 39.6109 -7.4146
v  25.4573 59.4163 4.9430
v  25.4573 59.4163 2.4715
v  25.4573 59.4163 0.0000
v  25.4573 59.4163 -2.4715
v  25.4573 59.4163 -4.9430
v  25.4573 59.4163 -7.4146
v  20.3658 19.8054 -7.4146
v  15.2744 19.8054 -7.4146
v  10.1829 19.8054 -7.4146
v  5.0915 19.8054 -7.4146
v  0.0000 19.8054 -7.4146
v  -5.0915 19.8054 -7.4146
v  -10.1829 19.8054 -7.4146
v  -15.2744 19.8054 -7.4146
v  -20.3658 19.8054 -7.4146
v  -25.4573 19.8054 -7.4146
v  20.3658 39.6109 -7.4146
v  15.2744 39.6109 -7.4146
v  10.1829 39.6109 -7.4146
v  5.0915 39.6109 -7.4146
v  0.0000 39.6109 -7.4146
v  -5.0915 39.6109 -7.4146
v  -10.1829 39.6109 -7.4146
v  -15.2744 39.6109 -7.4146
v  -20.3658 39.6109 -7.4146
v  -25.4573 39.6109 -7.4146
v  20.3658 59.4163 -7.4146
v  15.2744 59.4163 -7.4146
v  10.1829 59.4163 -7.4146
v  5.0915 59.4163 -7.4146
v  0.0000 59.4163 -7.4146
v  -5.0915 59.4163 -7.4146
v  -10.1829 59.4163 -7.4146
v  -15.2744 59.4163 -7.4146
v  -20.3658 59.4163 -7.4146
v  -25.4573 59.4163 -7.4146
v  -25.4573 19.8054 -4.9430
v  -25.4573 19.8054 -2.4715
v  -25.4573 19.8054 -0.0000
v  -25.4573 19.8054 2.4715
v  -25.4573 19.8054 4.9430
v  -25.4573 39.6109 -4.9430
v  -25.4573 39.6109 -2.4715
v  -25.4573 39.6109 -0.0000
v  -25.4573 39.6109 2.4715
v  -25.4573 39.6109 4.9430
v  -25.4573 59.4163 -4.9430
v  -25.4573 59.4163 -2.4715
v  -25.4573 59.4163 -0.0000
v  -25.4573 59.4163 2.4715
v  -25.4573 59.4163 4.9430
# 250 vertices

vn -0.5774 -0.5774 0.5774
vn -0.7071 -0.7071 -0.0000
vn 0.0000 -1.0000 -0.0000
vn 0.0000 -0.7071 0.7071
vn 0.7071 -0.7071 -0.0000
vn 0.5774 -0.5774 0.5774
vn -0.5774 -0.5774 -0.5774
vn 0.0000 -0.7071 -0.7071
vn 0.5774 -0.5774 -0.5774
vn -0.5774 0.5774 0.5774
vn 0.0000 0.7071 0.7071
vn 0.0000 1.0000 -0.0000
vn -0.7071 0.7071 -0.0000
vn 0.5774 0.5774 0.5774
vn 0.7071 0.7071 -0.0000
vn 0.0000 0.7071 -0.7071
vn -0.5774 0.5774 -0.5774
vn 0.5774 0.5774 -0.5774
vn 0.0000 0.0000 1.0000
vn -0.7071 0.0000 0.7071
vn 0.7071 0.0000 0.7071
vn 1.0000 0.0000 -0.0000
vn 0.7071 -0.0000 -0.7071
vn 0.7071 0.0000 -0.7071
vn 0.0000 -0.0000 -1.0000
vn -0.7071 -0.0000 -0.7071
vn 0.0000 0.0000 -1.0000
vn -0.7071 0.0000 -0.7071
vn -1.0000 0.0000 -0.0000
# 29 vertex normals

vt 1.0000 0.0000 0.0000
vt 1.0000 0.1667 0.0000
vt 0.9000 0.1667 0.0000
vt 0.9000 0.0000 0.0000
vt 0.8000 0.1667 0.0000
vt 0.8000 0.0000 0.0000
vt 0.7000 0.1667 0.0000
vt 0.7000 0.0000 0.0000
vt 0.6000 0.1667 0.0000
vt 0.6000 0.0000 0.0000
vt 0.5000 0.1667 0.0000
vt 0.5000 0.0000 0.0000
vt 0.4000 0.1667 0.0000
vt 0.4000 0.0000 0.0000
vt 0.3000 0.1667 0.0000
vt 0.3000 0.0000 0.0000
vt 0.2000 0.1667 0.0000
vt 0.2000 0.0000 0.0000
vt 0.1000 0.1667 0.0000
vt 0.1000 0.0000 0.0000
vt 0.0000 0.1667 0.0000
vt 0.0000 0.0000 0.0000
vt 1.0000 0.3333 0.0000
vt 0.9000 0.3333 0.0000
vt 0.8000 0.3333 0.0000
vt 0.7000 0.3333 0.0000
vt 0.6000 0.3333 0.0000
vt 0.5000 0.3333 0.0000
vt 0.4000 0.3333 0.0000
vt 0.3000 0.3333 0.0000
vt 0.2000 0.3333 0.0000
vt 0.1000 0.3333 0.0000
vt 0.0000 0.3333 0.0000
vt 1.0000 0.5000 0.0000
vt 0.9000 0.5000 0.0000
vt 0.8000 0.5000 0.0000
vt 0.7000 0.5000 0.0000
vt 0.6000 0.5000 0.0000
vt 0.5000 0.5000 0.0000
vt 0.4000 0.5000 0.0000
vt 0.3000 0.5000 0.0000
vt 0.2000 0.5000 0.0000
vt 0.1000 0.5000 0.0000
vt 0.0000 0.5000 0.0000
vt 1.0000 0.6667 0.0000
vt 0.9000 0.6667 0.0000
vt 0.8000 0.6667 0.0000
vt 0.7000 0.6667 0.0000
vt 0.6000 0.6667 0.0000
vt 0.5000 0.6667 0.0000
vt 0.4000 0.6667 0.0000
vt 0.3000 0.6667 0.0000
vt 0.2000 0.6667 0.0000
vt 0.1000 0.6667 0.0000
vt 0.0000 0.6667 0.0000
vt 1.0000 0.8333 0.0000
vt 0.9000 0.8333 0.0000
vt 0.8000 0.8333 0.0000
vt 0.7000 0.8333 0.0000
vt 0.6000 0.8333 0.0000
vt 0.5000 0.8333 0.0000
vt 0.4000 0.8333 0.0000
vt 0.3000 0.8333 0.0000
vt 0.2000 0.8333 0.0000
vt 0.1000 0.8333 0.0000
vt 0.0000 0.8333 0.0000
vt 1.0000 1.0000 0.0000
vt 0.9000 1.0000 0.0000
vt 0.8000 1.0000 0.0000
vt 0.7000 1.0000 0.0000
vt 0.6000 1.0000 0.0000
vt 0.5000 1.0000 0.0000
vt 0.4000 1.0000 0.0000
vt 0.3000 1.0000 0.0000
vt 0.2000 1.0000 0.0000
vt 0.1000 1.0000 0.0000
vt 0.0000 1.0000 0.0000
vt 0.1000 0.2500 0.0000
vt 0.0000 0.2500 0.0000
vt 0.2000 0.2500 0.0000
vt 0.3000 0.2500 0.0000
vt 0.4000 0.2500 0.0000
vt 0.5000 0.2500 0.0000
vt 0.6000 0.2500 0.0000
vt 0.7000 0.2500 0.0000
vt 0.8000 0.2500 0.0000
vt 0.9000 0.2500 0.0000
vt 1.0000 0.2500 0.0000
vt 0.1000 0.7500 0.0000
vt 0.0000 0.7500 0.0000
vt 0.2000 0.7500 0.0000
vt 0.3000 0.7500 0.0000
vt 0.4000 0.7500 0.0000
vt 0.5000 0.7500 0.0000
vt 0.6000 0.7500 0.0000
vt 0.7000 0.7500 0.0000
vt 0.8000 0.7500 0.0000
vt 0.9000 0.7500 0.0000
vt 1.0000 0.7500 0.0000
vt 0.1667 0.0000 0.0000
vt 0.1667 0.2500 0.0000
vt 0.3333 0.0000 0.0000
vt 0.3333 0.2500 0.0000
vt 0.6667 0.0000 0.0000
vt 0.6667 0.2500 0.0000
vt 0.8333 0.0000 0.0000
vt 0.8333 0.2500 0.0000
vt 0.1667 0.5000 0.0000
vt 0.3333 0.5000 0.0000
vt 0.6667 0.5000 0.0000
vt 0.8333 0.5000 0.0000
vt 0.1667 0.7500 0.0000
vt 0.3333 0.7500 0.0000
vt 0.6667 0.7500 0.0000
vt 0.8333 0.7500 0.0000
vt 0.1667 1.0000 0.0000
vt 0.3333 1.0000 0.0000
vt 0.6667 1.0000 0.0000
vt 0.8333 1.0000 0.0000
# 119 texture coords

o Box001
g Box001
usemtl wire_087225087
s 2
f 1/1/1 2/2/2 3/3/3 4/4/4 
f 4/4/4 3/3/3 5/5/3 6/6/4 
f 6/6/4 5/5/3 7/7/3 8/8/4 
f 8/8/4 7/7/3 9/9/3 10/10/4 
f 10/10/4 9/9/3 11/11/3 12/12/4 
f 12/12/4 11/11/3 13/13/3 14/14/4 
f 14/14/4 13/13/3 15/15/3 16/16/4 
f 16/16/4 15/15/3 17/17/3 18/18/4 
f 18/18/4 17/17/3 19/19/3 20/20/4 
f 20/20/4 19/19/3 21/21/5 22/22/6 
f 2/2/2 23/23/2 24/24/3 3/3/3 
f 3/3/3 24/24/3 25/25/3 5/5/3 
f 5/5/3 25/25/3 26/26/3 7/7/3 
f 7/7/3 26/26/3 27/27/3 9/9/3 
f 9/9/3 27/27/3 28/28/3 11/11/3 
f 11/11/3 28/28/3 29/29/3 13/13/3 
f 13/13/3 29/29/3 30/30/3 15/15/3 
f 15/15/3 30/30/3 31/31/3 17/17/3 
f 17/17/3 31/31/3 32/32/3 19/19/3 
f 19/19/3 32/32/3 33/33/5 21/21/5 
f 23/23/2 34/34/2 35/35/3 24/24/3 
f 24/24/3 35/35/3 36/36/3 25/25/3 
f 25/25/3 36/36/3 37/37/3 26/26/3 
f 26/26/3 37/37/3 38/38/3 27/27/3 
f 27/27/3 38/38/3 39/39/3 28/28/3 
f 28/28/3 39/39/3 40/40/3 29/29/3 
f 29/29/3 40/40/3 41/41/3 30/30/3 
f 30/30/3 41/41/3 42/42/3 31/31/3 
f 31/31/3 42/42/3 43/43/3 32/32/3 
f 32/32/3 43/43/3 44/44/5 33/33/5 
f 34/34/2 45/45/2 46/46/3 35/35/3 
f 35/35/3 46/46/3 47/47/3 36/36/3 
f 36/36/3 47/47/3 48/48/3 37/37/3 
f 37/37/3 48/48/3 49/49/3 38/38/3 
f 38/38/3 49/49/3 50/50/3 39/39/3 
f 39/39/3 50/50/3 51/51/3 40/40/3 
f 40/40/3 51/51/3 52/52/3 41/41/3 
f 41/41/3 52/52/3 53/53/3 42/42/3 
f 42/42/3 53/53/3 54/54/3 43/43/3 
f 43/43/3 54/54/3 55/55/5 44/44/5 
f 45/45/2 56/56/2 57/57/3 46/46/3 
f 46/46/3 57/57/3 58/58/3 47/47/3 
f 47/47/3 58/58/3 59/59/3 48/48/3 
f 48/48/3 59/59/3 60/60/3 49/49/3 
f 49/49/3 60/60/3 61/61/3 50/50/3 
f 50/50/3 61/61/3 62/62/3 51/51/3 
f 51/51/3 62/62/3 63/63/3 52/52/3 
f 52/52/3 63/63/3 64/64/3 53/53/3 
f 53/53/3 64/64/3 65/65/3 54/54/3 
f 54/54/3 65/65/3 66/66/5 55/55/5 
f 56/56/2 67/67/7 68/68/8 57/57/3 
f 57/57/3 68/68/8 69/69/8 58/58/3 
f 58/58/3 69/69/8 70/70/8 59/59/3 
f 59/59/3 70/70/8 71/71/8 60/60/3 
f 60/60/3 71/71/8 72/72/8 61/61/3 
f 61/61/3 72/72/8 73/73/8 62/62/3 
f 62/62/3 73/73/8 74/74/8 63/63/3 
f 63/63/3 74/74/8 75/75/8 64/64/3 
f 64/64/3 75/75/8 76/76/8 65/65/3 
f 65/65/3 76/76/8 77/77/9 66/66/5 
s 4
f 78/22/10 79/20/11 80/19/12 81/21/13 
f 79/20/11 82/18/11 83/17/12 80/19/12 
f 82/18/11 84/16/11 85/15/12 83/17/12 
f 84/16/11 86/14/11 87/13/12 85/15/12 
f 86/14/11 88/12/11 89/11/12 87/13/12 
f 88/12/11 90/10/11 91/9/12 89/11/12 
f 90/10/11 92/8/11 93/7/12 91/9/12 
f 92/8/11 94/6/11 95/5/12 93/7/12 
f 94/6/11 96/4/11 97/3/12 95/5/12 
f 96/4/11 98/1/14 99/2/15 97/3/12 
f 81/21/13 80/19/12 100/32/12 101/33/13 
f 80/19/12 83/17/12 102/31/12 100/32/12 
f 83/17/12 85/15/12 103/30/12 102/31/12 
f 85/15/12 87/13/12 104/29/12 103/30/12 
f 87/13/12 89/11/12 105/28/12 104/29/12 
f 89/11/12 91/9/12 106/27/12 105/28/12 
f 91/9/12 93/7/12 107/26/12 106/27/12 
f 93/7/12 95/5/12 108/25/12 107/26/12 
f 95/5/12 97/3/12 109/24/12 108/25/12 
f 97/3/12 99/2/15 110/23/15 109/24/12 
f 101/33/13 100/32/12 111/43/12 112/44/13 
f 100/32/12 102/31/12 113/42/12 111/43/12 
f 102/31/12 103/30/12 114/41/12 113/42/12 
f 103/30/12 104/29/12 115/40/12 114/41/12 
f 104/29/12 105/28/12 116/39/12 115/40/12 
f 105/28/12 106/27/12 117/38/12 116/39/12 
f 106/27/12 107/26/12 118/37/12 117/38/12 
f 107/26/12 108/25/12 119/36/12 118/37/12 
f 108/25/12 109/24/12 120/35/12 119/36/12 
f 109/24/12 110/23/15 121/34/15 120/35/12 
f 112/44/13 111/43/12 122/54/12 123/55/13 
f 111/43/12 113/42/12 124/53/12 122/54/12 
f 113/42/12 114/41/12 125/52/12 124/53/12 
f 114/41/12 115/40/12 126/51/12 125/52/12 
f 115/40/12 116/39/12 127/50/12 126/51/12 
f 116/39/12 117/38/12 128/49/12 127/50/12 
f 117/38/12 118/37/12 129/48/12 128/49/12 
f 118/37/12 119/36/12 130/47/12 129/48/12 
f 119/36/12 120/35/12 131/46/12 130/47/12 
f 120/35/12 121/34/15 132/45/15 131/46/12 
f 123/55/13 122/54/12 133/65/12 134/66/13 
f 122/54/12 124/53/12 135/64/12 133/65/12 
f 124/53/12 125/52/12 136/63/12 135/64/12 
f 125/52/12 126/51/12 137/62/12 136/63/12 
f 126/51/12 127/50/12 138/61/12 137/62/12 
f 127/50/12 128/49/12 139/60/12 138/61/12 
f 128/49/12 129/48/12 140/59/12 139/60/12 
f 129/48/12 130/47/12 141/58/12 140/59/12 
f 130/47/12 131/46/12 142/57/12 141/58/12 
f 131/46/12 132/45/15 143/56/15 142/57/12 
f 134/66/13 133/65/12 144/76/16 145/77/17 
f 133/65/12 135/64/12 146/75/16 144/76/16 
f 135/64/12 136/63/12 147/74/16 146/75/16 
f 136/63/12 137/62/12 148/73/16 147/74/16 
f 137/62/12 138/61/12 149/72/16 148/73/16 
f 138/61/12 139/60/12 150/71/16 149/72/16 
f 139/60/12 140/59/12 151/70/16 150/71/16 
f 140/59/12 141/58/12 152/69/16 151/70/16 
f 141/58/12 142/57/12 153/68/16 152/69/16 
f 142/57/12 143/56/15 154/67/18 153/68/16 
s 8
f 1/22/1 4/20/4 155/78/19 156/79/20 
f 4/20/4 6/18/4 157/80/19 155/78/19 
f 6/18/4 8/16/4 158/81/19 157/80/19 
f 8/16/4 10/14/4 159/82/19 158/81/19 
f 10/14/4 12/12/4 160/83/19 159/82/19 
f 12/12/4 14/10/4 161/84/19 160/83/19 
f 14/10/4 16/8/4 162/85/19 161/84/19 
f 16/8/4 18/6/4 163/86/19 162/85/19 
f 18/6/4 20/4/4 164/87/19 163/86/19 
f 20/4/4 22/1/6 165/88/21 164/87/19 
f 156/79/20 155/78/19 166/43/19 167/44/20 
f 155/78/19 157/80/19 168/42/19 166/43/19 
f 157/80/19 158/81/19 169/41/19 168/42/19 
f 158/81/19 159/82/19 170/40/19 169/41/19 
f 159/82/19 160/83/19 171/39/19 170/40/19 
f 160/83/19 161/84/19 172/38/19 171/39/19 
f 161/84/19 162/85/19 173/37/19 172/38/19 
f 162/85/19 163/86/19 174/36/19 173/37/19 
f 163/86/19 164/87/19 175/35/19 174/36/19 
f 164/87/19 165/88/21 176/34/21 175/35/19 
f 167/44/20 166/43/19 177/89/19 178/90/20 
f 166/43/19 168/42/19 179/91/19 177/89/19 
f 168/42/19 169/41/19 180/92/19 179/91/19 
f 169/41/19 170/40/19 181/93/19 180/92/19 
f 170/40/19 171/39/19 182/94/19 181/93/19 
f 171/39/19 172/38/19 183/95/19 182/94/19 
f 172/38/19 173/37/19 184/96/19 183/95/19 
f 173/37/19 174/36/19 185/97/19 184/96/19 
f 174/36/19 175/35/19 186/98/19 185/97/19 
f 175/35/19 176/34/21 187/99/21 186/98/19 
f 178/90/20 177/89/19 79/76/11 78/77/10 
f 177/89/19 179/91/19 82/75/11 79/76/11 
f 179/91/19 180/92/19 84/74/11 82/75/11 
f 180/92/19 181/93/19 86/73/11 84/74/11 
f 181/93/19 182/94/19 88/72/11 86/73/11 
f 182/94/19 183/95/19 90/71/11 88/72/11 
f 183/95/19 184/96/19 92/70/11 90/71/11 
f 184/96/19 185/97/19 94/69/11 92/70/11 
f 185/97/19 186/98/19 96/68/11 94/69/11 
f 186/98/19 187/99/21 98/67/14 96/68/11 
s 16
f 22/22/6 21/100/5 188/101/22 165/79/21 
f 21/100/5 33/102/5 189/103/22 188/101/22 
f 33/102/5 44/12/5 190/83/22 189/103/22 
f 44/12/5 55/104/5 191/105/22 190/83/22 
f 55/104/5 66/106/5 192/107/22 191/105/22 
f 66/106/5 77/1/9 193/88/23 192/107/22 
f 165/79/21 188/101/22 194/108/22 176/44/21 
f 188/101/22 189/103/22 195/109/22 194/108/22 
f 189/103/22 190/83/22 196/39/22 195/109/22 
f 190/83/22 191/105/22 197/110/22 196/39/22 
f 191/105/22 192/107/22 198/111/22 197/110/22 
f 192/107/22 193/88/23 199/34/24 198/111/22 
f 176/44/21 194/108/22 200/112/22 187/90/21 
f 194/108/22 195/109/22 201/113/22 200/112/22 
f 195/109/22 196/39/22 202/94/22 201/113/22 
f 196/39/22 197/110/22 203/114/22 202/94/22 
f 197/110/22 198/111/22 204/115/22 203/114/22 
f 198/111/22 199/34/24 205/99/24 204/115/22 
f 187/90/21 200/112/22 99/116/15 98/77/14 
f 200/112/22 201/113/22 110/117/15 99/116/15 
f 201/113/22 202/94/22 121/72/15 110/117/15 
f 202/94/22 203/114/22 132/118/15 121/72/15 
f 203/114/22 204/115/22 143/119/15 132/118/15 
f 204/115/22 205/99/24 154/67/18 143/119/15 
s 32
f 77/22/9 76/20/8 206/78/25 193/79/23 
f 76/20/8 75/18/8 207/80/25 206/78/25 
f 75/18/8 74/16/8 208/81/25 207/80/25 
f 74/16/8 73/14/8 209/82/25 208/81/25 
f 73/14/8 72/12/8 210/83/25 209/82/25 
f 72/12/8 71/10/8 211/84/25 210/83/25 
f 71/10/8 70/8/8 212/85/25 211/84/25 
f 70/8/8 69/6/8 213/86/25 212/85/25 
f 69/6/8 68/4/8 214/87/25 213/86/25 
f 68/4/8 67/1/7 215/88/26 214/87/25 
f 193/79/23 206/78/25 216/43/27 199/44/24 
f 206/78/25 207/80/25 217/42/27 216/43/27 
f 207/80/25 208/81/25 218/41/27 217/42/27 
f 208/81/25 209/82/25 219/40/27 218/41/27 
f 209/82/25 210/83/25 220/39/27 219/40/27 
f 210/83/25 211/84/25 221/38/27 220/39/27 
f 211/84/25 212/85/25 222/37/27 221/38/27 
f 212/85/25 213/86/25 223/36/27 222/37/27 
f 213/86/25 214/87/25 224/35/27 223/36/27 
f 214/87/25 215/88/26 225/34/28 224/35/27 
f 199/44/24 216/43/27 226/89/27 205/90/24 
f 216/43/27 217/42/27 227/91/27 226/89/27 
f 217/42/27 218/41/27 228/92/27 227/91/27 
f 218/41/27 219/40/27 229/93/27 228/92/27 
f 219/40/27 220/39/27 230/94/27 229/93/27 
f 220/39/27 221/38/27 231/95/27 230/94/27 
f 221/38/27 222/37/27 232/96/27 231/95/27 
f 222/37/27 223/36/27 233/97/27 232/96/27 
f 223/36/27 224/35/27 234/98/27 233/97/27 
f 224/35/27 225/34/28 235/99/28 234/98/27 
f 205/90/24 226/89/27 153/76/16 154/77/18 
f 226/89/27 227/91/27 152/75/16 153/76/16 
f 227/91/27 228/92/27 151/74/16 152/75/16 
f 228/92/27 229/93/27 150/73/16 151/74/16 
f 229/93/27 230/94/27 149/72/16 150/73/16 
f 230/94/27 231/95/27 148/71/16 149/72/16 
f 231/95/27 232/96/27 147/70/16 148/71/16 
f 232/96/27 233/97/27 146/69/16 147/70/16 
f 233/97/27 234/98/27 144/68/16 146/69/16 
f 234/98/27 235/99/28 145/67/17 144/68/16 
s 64
f 67/22/7 56/100/2 236/101/29 215/79/26 
f 56/100/2 45/102/2 237/103/29 236/101/29 
f 45/102/2 34/12/2 238/83/29 237/103/29 
f 34/12/2 23/104/2 239/105/29 238/83/29 
f 23/104/2 2/106/2 240/107/29 239/105/29 
f 2/106/2 1/1/1 156/88/20 240/107/29 
f 215/79/26 236/101/29 241/108/29 225/44/28 
f 236/101/29 237/103/29 242/109/29 241/108/29 
f 237/103/29 238/83/29 243/39/29 242/109/29 
f 238/83/29 239/105/29 244/110/29 243/39/29 
f 239/105/29 240/107/29 245/111/29 244/110/29 
f 240/107/29 156/88/20 167/34/20 245/111/29 
f 225/44/28 241/108/29 246/112/29 235/90/28 
f 241/108/29 242/109/29 247/113/29 246/112/29 
f 242/109/29 243/39/29 248/94/29 247/113/29 
f 243/39/29 244/110/29 249/114/29 248/94/29 
f 244/110/29 245/111/29 250/115/29 249/114/29 
f 245/111/29 167/34/20 178/99/20 250/115/29 
f 235/90/28 246/112/29 134/116/13 145/77/17 
f 246/112/29 247/113/29 123/117/13 134/116/13 
f 247/113/29 248/94/29 112/72/13 123/117/13 
f 248/94/29 249/114/29 101/118/13 112/72/13 
f 249/114/29 250/115/29 81/119/13 101/118/13 
f 250/115/29 178/99/20 78/67/10 81/119/13 
# 248 polygons

